Results
version=1
nRows=4
nColumns=213
inDegrees=yes
endheader
time	platform_rx	platform_ry	platform_rz	platform_ty	pelvis_tilt	pelvis_list	pelvis_rotation	pelvis_tx	pelvis_ty	pelvis_tz	hip_flexion_r	hip_adduction_r	hip_rotation_r	knee_angle_r	knee_angle_r_beta	ankle_angle_r	subtalar_angle_r	mtp_angle_r	hip_flexion_l	hip_adduction_l	hip_rotation_l	knee_angle_l	knee_angle_l_beta	ankle_angle_l	subtalar_angle_l	mtp_angle_l	lumbar_extension	lumbar_bending	lumbar_rotation	arm_flex_r	arm_add_r	arm_rot_r	elbow_flex_r	pro_sup_r	wrist_flex_r	wrist_dev_r	arm_flex_l	arm_add_l	arm_rot_l	elbow_flex_l	pro_sup_l	wrist_flex_l	wrist_dev_l	platform_rx_u	platform_ry_u	platform_rz_u	platform_ty_u	pelvis_tilt_u	pelvis_list_u	pelvis_rotation_u	pelvis_tx_u	pelvis_ty_u	pelvis_tz_u	hip_flexion_r_u	hip_adduction_r_u	hip_rotation_r_u	knee_angle_r_u	knee_angle_r_beta_u	ankle_angle_r_u	subtalar_angle_r_u	mtp_angle_r_u	hip_flexion_l_u	hip_adduction_l_u	hip_rotation_l_u	knee_angle_l_u	knee_angle_l_beta_u	ankle_angle_l_u	subtalar_angle_l_u	mtp_angle_l_u	lumbar_extension_u	lumbar_bending_u	lumbar_rotation_u	arm_flex_r_u	arm_add_r_u	arm_rot_r_u	elbow_flex_r_u	pro_sup_r_u	wrist_flex_r_u	wrist_dev_r_u	arm_flex_l_u	arm_add_l_u	arm_rot_l_u	elbow_flex_l_u	pro_sup_l_u	wrist_flex_l_u	wrist_dev_l_u	addbrev_r.activation	addlong_r.activation	addlong_r.fiber_length	addmagDist_r.activation	addmagIsch_r.activation	addmagIsch_r.fiber_length	addmagMid_r.activation	addmagProx_r.activation	bflh_r.activation	bflh_r.fiber_length	bfsh_r.activation	edl_r.activation	edl_r.fiber_length	ehl_r.activation	ehl_r.fiber_length	fdl_r.activation	fdl_r.fiber_length	fhl_r.activation	fhl_r.fiber_length	gaslat_r.activation	gaslat_r.fiber_length	gasmed_r.activation	gasmed_r.fiber_length	glmax1_r.activation	glmax2_r.activation	glmax3_r.activation	glmed1_r.activation	glmed2_r.activation	glmed3_r.activation	glmin1_r.activation	glmin2_r.activation	glmin3_r.activation	glmin3_r.fiber_length	grac_r.activation	iliacus_r.activation	perbrev_r.activation	perbrev_r.fiber_length	perlong_r.activation	perlong_r.fiber_length	piri_r.activation	piri_r.fiber_length	psoas_r.activation	recfem_r.activation	recfem_r.fiber_length	sart_r.activation	semimem_r.activation	semimem_r.fiber_length	semiten_r.activation	semiten_r.fiber_length	soleus_r.activation	soleus_r.fiber_length	tfl_r.activation	tfl_r.fiber_length	tibant_r.activation	tibant_r.fiber_length	tibpost_r.activation	tibpost_r.fiber_length	vasint_r.activation	vasint_r.fiber_length	vaslat_r.activation	vaslat_r.fiber_length	vasmed_r.activation	vasmed_r.fiber_length	addbrev_l.activation	addlong_l.activation	addlong_l.fiber_length	addmagDist_l.activation	addmagIsch_l.activation	addmagIsch_l.fiber_length	addmagMid_l.activation	addmagProx_l.activation	bflh_l.activation	bflh_l.fiber_length	bfsh_l.activation	edl_l.activation	edl_l.fiber_length	ehl_l.activation	ehl_l.fiber_length	fdl_l.activation	fdl_l.fiber_length	fhl_l.activation	fhl_l.fiber_length	gaslat_l.activation	gaslat_l.fiber_length	gasmed_l.activation	gasmed_l.fiber_length	glmax1_l.activation	glmax2_l.activation	glmax3_l.activation	glmed1_l.activation	glmed2_l.activation	glmed3_l.activation	glmin1_l.activation	glmin2_l.activation	glmin3_l.activation	glmin3_l.fiber_length	grac_l.activation	iliacus_l.activation	perbrev_l.activation	perbrev_l.fiber_length	perlong_l.activation	perlong_l.fiber_length	piri_l.activation	piri_l.fiber_length	psoas_l.activation	recfem_l.activation	recfem_l.fiber_length	sart_l.activation	semimem_l.activation	semimem_l.fiber_length	semiten_l.activation	semiten_l.fiber_length	soleus_l.activation	soleus_l.fiber_length	tfl_l.activation	tfl_l.fiber_length	tibant_l.activation	tibant_l.fiber_length	tibpost_l.activation	tibpost_l.fiber_length	vasint_l.activation	vasint_l.fiber_length	vaslat_l.activation	vaslat_l.fiber_length	vasmed_l.activation	vasmed_l.fiber_length
      0.00691843	     20.00000000	     -0.00000000	      0.00000000	      0.25000000	     -5.19514395	     -0.00617981	     -0.00512077	      0.11899421	      0.90309574	      0.00002297	     23.18133530	     -8.24682751	    -10.03470763	     32.74654428	     32.74654428	     10.05838040	     -0.69224057	     -0.00000000	     23.17605781	     -8.28634153	    -10.05948107	     32.74773088	     32.74773088	     10.20719372	     -0.00000000	      0.00000000	     -0.16952142	      0.00558047	      0.00509073	     31.02919910	     -0.00155533	     89.91741302	      0.09437628	      0.08628495	      0.00000000	      0.00000000	     31.02948410	     -0.00324744	     89.91833404	      0.09510648	      0.08637474	     -0.00000000	      0.00000000	     -0.00000000	     -0.00000000	      0.00000000	     -0.00000000	     40.60232657	     -1.54314503	     -1.26268804	     -0.00000521	      0.02553360	      0.00586963	    -52.40207490	      3.67883024	    -10.14220788	    -41.72997717	    -41.72997717	   -674.37601716	   -180.43383328	     -0.00000000	    -53.72127551	     -6.37946652	    -16.43995349	    -41.41625500	    -41.41625500	   -636.89498236	     -0.00000000	      0.00000000	    -48.63135924	      1.37095269	      1.25886995	      8.26484972	     -0.42256107	     -0.36783048	      1.73698579	     -0.41058275	     -0.00000000	      0.00000000	      8.34503860	     -0.89843626	     -0.22164851	      1.94207426	     -0.38534878	     -0.00000000	      0.00000000	      0.01000000	      0.01000000	      0.10454199	      0.01000000	      0.01000000	      0.15077800	      0.01000000	      0.01000000	      0.01000000	      0.09602322	      0.01000000	      0.01000000	      0.06252145	      0.01000000	      0.07125032	      0.01000000	      0.04661639	      0.01000000	      0.05383258	      0.01000000	      0.06819035	      0.01000000	      0.05946585	      0.01000000	      0.01000000	      0.01000000	      0.01000000	      0.01000000	      0.01000000	      0.01000000	      0.01000000	      0.01000000	      0.03724778	      0.01000000	      0.01000000	      0.01000000	      0.04926590	      0.01000000	      0.05537024	      0.01000000	      0.02105546	      0.01000000	      0.01000000	      0.07230059	      0.01000000	      0.01000000	      0.06625118	      0.01000000	      0.21230537	      0.01000000	      0.05390085	      0.01000000	      0.08565187	      0.01000000	      0.05862515	      0.01000000	      0.04064200	      0.01000000	      0.10442950	      0.01000000	      0.10271499	      0.01000000	      0.10220222	      0.01000000	      0.01000000	      0.10458523	      0.01000000	      0.01000000	      0.15079748	      0.01000000	      0.01000000	      0.01000000	      0.09602728	      0.01000000	      0.01000000	      0.06258740	      0.01000000	      0.07117146	      0.01000000	      0.04655927	      0.01000000	      0.05377418	      0.01000000	      0.06821573	      0.01000000	      0.05951102	      0.01000000	      0.01000000	      0.01000000	      0.01000000	      0.01000000	      0.01000000	      0.01000000	      0.01000000	      0.01000000	      0.03722663	      0.01000000	      0.01000000	      0.01000000	      0.04952303	      0.01000000	      0.05555735	      0.01000000	      0.02104074	      0.01000000	      0.01000000	      0.07229714	      0.01000000	      0.01000000	      0.06625437	      0.01000000	      0.21231637	      0.01000000	      0.05392981	      0.01000000	      0.08563696	      0.01000000	      0.05843773	      0.01000000	      0.04056753	      0.01000000	      0.10443010	      0.01000000	      0.10271557	      0.01000000	      0.10220278
      0.00824038	     20.00000000	     -0.00000000	      0.00000000	      0.25000000	     -5.13639582	     -0.00831365	     -0.00685992	      0.11899495	      0.90313174	      0.00003115	     23.10510473	     -8.24166030	    -10.04943230	     32.68567766	     32.68567766	      9.10612551	     -0.94510377	     -0.00000000	     23.09800245	     -8.29516712	    -10.08297099	     32.68730066	     32.68730066	      9.30687915	     -0.00000000	      0.00000000	     -0.23977995	      0.00746568	      0.00682684	     31.04108865	     -0.00215675	     89.91687923	      0.09685426	      0.08573933	      0.00000000	      0.00000000	     31.04148852	     -0.00453045	     89.91800969	      0.09787821	      0.08586526	     -0.00000000	      0.00000000	      0.00000000	     -0.00000000	      0.00000000	      0.00000000	     48.27309125	     -1.67723758	     -1.36168596	      0.00118974	      0.02884178	      0.00647463	    -62.95703179	      4.12759118	    -12.13620082	    -50.39240770	    -50.39240770	   -764.12001221	   -201.41109562	     -0.00000000	    -64.39196666	     -6.93780411	    -19.07270353	    -50.04875887	    -50.04875887	   -723.21525335	     -0.00000000	      0.00000000	    -57.64750530	      1.47340856	      1.36112898	      9.71587663	     -0.48645883	     -0.43983204	      2.00853218	     -0.41022625	     -0.00000000	      0.00000000	      9.80933437	     -1.04086183	     -0.26943146	      2.24747007	     -0.38081909	     -0.00000000	      0.00000000	      0.01000000	      0.01000000	      0.10458593	      0.01000000	      0.01000000	      0.15071264	      0.01000000	      0.01000000	      0.01000000	      0.09599179	      0.01000000	      0.01000000	      0.06302056	      0.01000000	      0.07186451	      0.01000000	      0.04660281	      0.01000000	      0.05375356	      0.01000000	      0.06770261	      0.01000000	      0.05899581	      0.01000000	      0.01000000	      0.01000000	      0.01000000	      0.01000000	      0.01000000	      0.01000000	      0.01000000	      0.01000000	      0.03723213	      0.01000000	      0.01000000	      0.01000000	      0.04908881	      0.01000000	      0.05518851	      0.01000000	      0.02104147	      0.01000000	      0.01000000	      0.07230798	      0.01000000	      0.01000000	      0.06623632	      0.01000000	      0.21227892	      0.01000000	      0.05346789	      0.01000000	      0.08568351	      0.01000000	      0.05934077	      0.01000000	      0.04061408	      0.01000000	      0.10439461	      0.01000000	      0.10268078	      0.01000000	      0.10217015	      0.01000000	      0.01000000	      0.10464702	      0.01000000	      0.01000000	      0.15074032	      0.01000000	      0.01000000	      0.01000000	      0.09599786	      0.01000000	      0.01000000	      0.06311501	      0.01000000	      0.07175371	      0.01000000	      0.04651083	      0.01000000	      0.05366088	      0.01000000	      0.06773852	      0.01000000	      0.05906083	      0.01000000	      0.01000000	      0.01000000	      0.01000000	      0.01000000	      0.01000000	      0.01000000	      0.01000000	      0.01000000	      0.03720204	      0.01000000	      0.01000000	      0.01000000	      0.04945575	      0.01000000	      0.05547000	      0.01000000	      0.02101894	      0.01000000	      0.01000000	      0.07230268	      0.01000000	      0.01000000	      0.06624116	      0.01000000	      0.21229433	      0.01000000	      0.05350862	      0.01000000	      0.08566013	      0.01000000	      0.05908099	      0.01000000	      0.04049365	      0.01000000	      0.10439547	      0.01000000	      0.10268163	      0.01000000	      0.10217095
      0.00956232	     20.00000000	     -0.00000000	      0.00000000	      0.25000000	     -5.06752971	     -0.01059305	     -0.00870279	      0.11899753	      0.90317174	      0.00004002	     23.01480713	     -8.23594433	    -10.06679520	     32.61323099	     32.61323099	      8.04409543	     -1.22280072	     -0.00000000	     23.00575344	     -8.30458998	    -10.10983715	     32.61531716	     32.61531716	      8.30051804	     -0.00000000	      0.00000000	     -0.32189123	      0.00945527	      0.00867189	     31.05486768	     -0.00283911	     89.91624987	      0.09967718	      0.08521338	     -0.00000000	      0.00000000	     31.05539934	     -0.00599441	     89.91762065	      0.10103800	      0.08538078	     -0.00000000	      0.00000000	      0.00000000	     -0.00000000	      0.00000000	      0.00000000	     55.90947184	     -1.76356582	     -1.41979189	      0.00278435	      0.03158573	      0.00692192	    -73.68298755	      4.50927985	    -14.13208287	    -59.23950463	    -59.23950463	   -840.42118015	   -217.99081820	     -0.00000000	    -75.19392083	     -7.28333578	    -21.54749573	    -58.88617966	    -58.88617966	   -797.30417626	     -0.00000000	      0.00000000	    -66.56281827	      1.52912979	      1.42388588	     11.12342086	     -0.54503103	     -0.51242563	      2.25877318	     -0.38058011	     -0.00000000	      0.00000000	     11.22917519	     -1.17209939	     -0.31956234	      2.52904365	     -0.34731189	     -0.00000000	      0.00000000	      0.01000000	      0.01000000	      0.10463963	      0.01000000	      0.01000000	      0.15063371	      0.01000000	      0.01000000	      0.01000000	      0.09595274	      0.01000000	      0.01000000	      0.06358565	      0.01000000	      0.07255848	      0.01000000	      0.04658495	      0.01000000	      0.05365366	      0.01000000	      0.06714033	      0.01000000	      0.05845199	      0.01000000	      0.01000000	      0.01000000	      0.01000000	      0.01000000	      0.01000000	      0.01000000	      0.01000000	      0.01000000	      0.03721287	      0.01000000	      0.01000000	      0.01000000	      0.04888925	      0.01000000	      0.05497754	      0.01000000	      0.02102347	      0.01000000	      0.01000000	      0.07231726	      0.01000000	      0.01000000	      0.06621763	      0.01000000	      0.21224764	      0.01000000	      0.05296740	      0.01000000	      0.08572453	      0.01000000	      0.06014500	      0.01000000	      0.04057813	      0.01000000	      0.10435184	      0.01000000	      0.10263875	      0.01000000	      0.10213102	      0.01000000	      0.01000000	      0.10472008	      0.01000000	      0.01000000	      0.15067058	      0.01000000	      0.01000000	      0.01000000	      0.09596115	      0.01000000	      0.01000000	      0.06371287	      0.01000000	      0.07241197	      0.01000000	      0.04644798	      0.01000000	      0.05352158	      0.01000000	      0.06718750	      0.01000000	      0.05853848	      0.01000000	      0.01000000	      0.01000000	      0.01000000	      0.01000000	      0.01000000	      0.01000000	      0.01000000	      0.01000000	      0.03717278	      0.01000000	      0.01000000	      0.01000000	      0.04937676	      0.01000000	      0.05536370	      0.01000000	      0.02099152	      0.01000000	      0.01000000	      0.07230972	      0.01000000	      0.01000000	      0.06622444	      0.01000000	      0.21226792	      0.01000000	      0.05302106	      0.01000000	      0.08569048	      0.01000000	      0.05980571	      0.01000000	      0.04040193	      0.01000000	      0.10435301	      0.01000000	      0.10263989	      0.01000000	      0.10213209
      0.01088427	     20.00000000	     -0.00000000	      0.00000000	      0.25000000	     -4.98859404	     -0.01295581	     -0.01059636	      0.11900249	      0.90321499	      0.00004938	     22.91022440	     -8.22976737	    -10.08679190	     32.52900562	     32.52900562	      6.89015379	     -1.51946930	     -0.00000000	     22.89914417	     -8.31433057	    -10.13986873	     32.53155158	     32.53155158	      7.20436460	     -0.00000000	      0.00000000	     -0.41571804	      0.01148870	      0.01057464	     31.07047849	     -0.00359553	     89.91552418	      0.10281662	      0.08474664	     -0.00000000	      0.00000000	     31.07115746	     -0.00762408	     89.91716364	      0.10455383	      0.08496037	     -0.00000000	      0.00000000	      0.00000000	     -0.00000000	      0.00000000	      0.00000000	     63.50611312	     -1.80399560	     -1.43905391	      0.00477279	      0.03374648	      0.00721414	    -84.56546158	      4.82592051	    -16.11887470	    -68.20053894	    -68.20053894	   -903.22094517	   -230.12391726	     -0.00000000	    -86.11471496	     -7.42003583	    -23.86160673	    -67.86199968	    -67.86199968	   -859.08416480	     -0.00000000	      0.00000000	    -75.37062283	      1.54054351	      1.44904587	     12.48717223	     -0.59867404	     -0.58551921	      2.48743791	     -0.32060050	     -0.00000000	      0.00000000	     12.60405226	     -1.29136647	     -0.37230800	      2.78602085	     -0.28384982	     -0.00000000	      0.00000000	      0.01000000	      0.01000000	      0.10470332	      0.01000000	      0.01000000	      0.15054103	      0.01000000	      0.01000000	      0.01000000	      0.09590585	      0.01000000	      0.01000000	      0.06420649	      0.01000000	      0.07331958	      0.01000000	      0.04656235	      0.01000000	      0.05353460	      0.01000000	      0.06651458	      0.01000000	      0.05784515	      0.01000000	      0.01000000	      0.01000000	      0.01000000	      0.01000000	      0.01000000	      0.01000000	      0.01000000	      0.01000000	      0.03718980	      0.01000000	      0.01000000	      0.01000000	      0.04867144	      0.01000000	      0.05474283	      0.01000000	      0.02100114	      0.01000000	      0.01000000	      0.07232845	      0.01000000	      0.01000000	      0.06619498	      0.01000000	      0.21221153	      0.01000000	      0.05240395	      0.01000000	      0.08577539	      0.01000000	      0.06102373	      0.01000000	      0.04053389	      0.01000000	      0.10430096	      0.01000000	      0.10258864	      0.01000000	      0.10208461	      0.01000000	      0.01000000	      0.10480403	      0.01000000	      0.01000000	      0.15058785	      0.01000000	      0.01000000	      0.01000000	      0.09591695	      0.01000000	      0.01000000	      0.06437039	      0.01000000	      0.07313444	      0.01000000	      0.04637109	      0.01000000	      0.05335985	      0.01000000	      0.06657321	      0.01000000	      0.05795423	      0.01000000	      0.01000000	      0.01000000	      0.01000000	      0.01000000	      0.01000000	      0.01000000	      0.01000000	      0.01000000	      0.03713896	      0.01000000	      0.01000000	      0.01000000	      0.04928747	      0.01000000	      0.05524126	      0.01000000	      0.02095854	      0.01000000	      0.01000000	      0.07231831	      0.01000000	      0.01000000	      0.06620406	      0.01000000	      0.21223707	      0.01000000	      0.05247191	      0.01000000	      0.08572881	      0.01000000	      0.06059950	      0.01000000	      0.04029456	      0.01000000	      0.10430245	      0.01000000	      0.10259010	      0.01000000	      0.10208597
